<svg xmlns="http://www.w3.org/2000/svg" xmlns:xlink="http://www.w3.org/1999/xlink" version="1.1" data-diagram-type="DESCRIPTION" style="width:1668px;height:655px;background:#FFFFFF;" width="1668px" height="655px" viewBox="0 0 1668 655" zoomAndPan="magnify" preserveAspectRatio="none" contentStyleType="text/css"><?plantuml 1.2026.7beta8?><defs/><g font-family="sans-serif" lengthAdjust="spacing"><g class="title" data-source-line="1"><text x="581.091" y="22.995" fill="#000" font-size="14" textLength="498.818" font-weight="700">Reusable Workflow Relationships: Standard Stack Composition</text></g><!--cluster Consumer Repository (generic Python project)--><g class="cluster" data-qualified-name="Consumer Repository .generic Python project." id="ent0001" data-source-line="14"><path d="M1030.5,43.297 L1398.768,43.297 A3.75,3.75 0 0 1 1401.268,45.797 L1408.268,65.594 L1408.5,65.594 A2.5,2.5 0 0 1 1411,68.094 L1411,160.687 A2.5,2.5 0 0 1 1408.5,163.187 L1030.5,163.187 A2.5,2.5 0 0 1 1028,160.687 L1028,45.797 A2.5,2.5 0 0 1 1030.5,43.297" style="stroke:#000;stroke-width:1.5;" fill="none"/><line x1="1028" y1="65.594" x2="1408.268" y2="65.594" style="stroke:#000;stroke-width:1.5;"/><text x="1032" y="58.292" fill="#000" font-size="14" textLength="367.268" font-weight="700">Consumer Repository (generic Python project)</text></g><!--cluster Composed by the Standard Stack (verified from jobs:)--><g class="cluster" data-qualified-name="Composed by the Standard Stack .verified from jobs.." id="ent0004" data-source-line="20"><path d="M8.5,474.887 L436.404,474.887 A3.75,3.75 0 0 1 438.904,477.387 L445.904,497.184 L884.5,497.184 A2.5,2.5 0 0 1 887,499.684 L887,608.567 A2.5,2.5 0 0 1 884.5,611.067 L8.5,611.067 A2.5,2.5 0 0 1 6,608.567 L6,477.387 A2.5,2.5 0 0 1 8.5,474.887" style="stroke:#000;stroke-width:1.5;" fill="none"/><line x1="6" y1="497.184" x2="445.904" y2="497.184" style="stroke:#000;stroke-width:1.5;"/><text x="10" y="489.882" fill="#000" font-size="14" textLength="426.904" font-weight="700">Composed by the Standard Stack (verified from jobs:)</text></g><!--cluster Other Reusable Workflows\n(called directly by consumers, outside the bundle)--><g class="cluster" data-qualified-name="Other Reusable Workflows.n.called directly by consumers. outside the bundle." id="ent0009" data-source-line="27"><path d="M1019.5,229.417 L1418.857,229.417 A3.75,3.75 0 0 1 1421.357,231.917 L1428.357,268.011 L1650.5,268.011 A2.5,2.5 0 0 1 1653,270.511 L1653,346.507 A2.5,2.5 0 0 1 1650.5,349.007 L1019.5,349.007 A2.5,2.5 0 0 1 1017,346.507 L1017,231.917 A2.5,2.5 0 0 1 1019.5,229.417" style="stroke:#000;stroke-width:1.5;" fill="none"/><line x1="1017" y1="268.011" x2="1428.357" y2="268.011" style="stroke:#000;stroke-width:1.5;"/><text x="1115.131" y="244.412" fill="#000" font-size="14" textLength="210.096" font-weight="700">Other Reusable Workflows</text><text x="1021" y="260.709" fill="#000" font-size="14" textLength="398.357" font-weight="700">(called directly by consumers, outside the bundle)</text></g><!--entity caller--><g class="entity" data-qualified-name="Consumer Repository .generic Python project..caller" id="ent0002" data-source-line="15"><rect x="1102.79" y="78.297" width="232.413" height="68.891" fill="#E3F2FD" style="stroke:#666;stroke-width:0.5;" rx="2.5" ry="2.5"/><text x="1191.219" y="101.292" fill="#000" font-size="14" textLength="55.556" font-style="italic">«caller»</text><text x="1112.79" y="117.589" fill="#000" font-size="14" textLength="110.059">Caller Workflow</text><text x="1112.79" y="133.886" fill="#000" font-size="14" textLength="212.413">(e.g. .github/workflows/ci.yml)</text></g><!--entity ci--><g class="entity" data-qualified-name="Composed by the Standard Stack .verified from jobs...ci" id="ent0005" data-source-line="21"><rect x="22.06" y="518.027" width="115.874" height="68.891" fill="#FFF3E0" style="stroke:#666;stroke-width:0.5;" rx="2.5" ry="2.5"/><text x="35.358" y="541.022" fill="#000" font-size="14" textLength="89.277" font-style="italic">«composed»</text><text x="32.06" y="557.319" fill="#000" font-size="14" textLength="95.874">python-ci.yml</text><text x="32.06" y="573.616" fill="#000" font-size="14" textLength="53.02">(job: ci)</text></g><!--entity security--><g class="entity" data-qualified-name="Composed by the Standard Stack .verified from jobs...security" id="ent0006" data-source-line="22"><rect x="173.04" y="518.027" width="221.92" height="68.891" fill="#FFF3E0" style="stroke:#666;stroke-width:0.5;" rx="2.5" ry="2.5"/><text x="239.361" y="541.022" fill="#000" font-size="14" textLength="89.277" font-style="italic">«composed»</text><text x="183.04" y="557.319" fill="#000" font-size="14" textLength="201.92">python-security-analysis.yml</text><text x="183.04" y="573.616" fill="#000" font-size="14" textLength="169.265">(job: security, needs: ci)</text></g><!--entity sbom--><g class="entity" data-qualified-name="Composed by the Standard Stack .verified from jobs...sbom" id="ent0007" data-source-line="23"><rect x="430.12" y="518.027" width="171.751" height="68.891" fill="#FFF3E0" style="stroke:#666;stroke-width:0.5;" rx="2.5" ry="2.5"/><text x="471.357" y="541.022" fill="#000" font-size="14" textLength="89.277" font-style="italic">«composed»</text><text x="440.12" y="557.319" fill="#000" font-size="14" textLength="122.671">python-sbom.yml</text><text x="440.12" y="573.616" fill="#000" font-size="14" textLength="151.751">(job: sbom, needs: ci)</text></g><!--entity snyk--><g class="entity" data-qualified-name="Composed by the Standard Stack .verified from jobs...snyk" id="ent0008" data-source-line="24"><rect x="637.02" y="509.887" width="233.965" height="85.188" fill="#FFF3E0" style="stroke:#666;stroke-width:0.5;" rx="2.5" ry="2.5"/><text x="709.364" y="532.882" fill="#000" font-size="14" textLength="89.277" font-style="italic">«composed»</text><text x="647.02" y="549.179" fill="#000" font-size="14" textLength="116.847">python-snyk.yml</text><text x="647.02" y="565.476" fill="#000" font-size="14" textLength="144.915">(job: snyk, needs: ci,</text><text x="647.02" y="581.773" fill="#000" font-size="14" textLength="213.965">conditional: if inputs.run-snyk)</text></g><!--entity snykiac--><g class="entity" data-qualified-name="Other Reusable Workflows.n.called directly by consumers. outside the bundle..snykiac" id="ent0010" data-source-line="28"><rect x="1032.97" y="280.417" width="162.064" height="52.594" fill="#E0E0E0" style="stroke:#666;stroke-width:0.5;" rx="2.5" ry="2.5"/><text x="1096.458" y="303.412" fill="#000" font-size="14" textLength="35.089" font-style="italic">«alt»</text><text x="1042.97" y="319.709" fill="#000" font-size="14" textLength="142.064">python-snyk-iac.yml</text></g><!--entity pypi--><g class="entity" data-qualified-name="Other Reusable Workflows.n.called directly by consumers. outside the bundle..pypi" id="ent0011" data-source-line="29"><rect x="1230.06" y="280.417" width="189.88" height="52.594" fill="#E0E0E0" style="stroke:#666;stroke-width:0.5;" rx="2.5" ry="2.5"/><text x="1307.456" y="303.412" fill="#000" font-size="14" textLength="35.089" font-style="italic">«alt»</text><text x="1240.06" y="319.709" fill="#000" font-size="14" textLength="169.88">python-publish-pypi.yml</text></g><!--entity sonar--><g class="entity" data-qualified-name="Other Reusable Workflows.n.called directly by consumers. outside the bundle..sonar" id="ent0012" data-source-line="30"><rect x="1455.37" y="280.417" width="181.267" height="52.594" fill="#E0E0E0" style="stroke:#666;stroke-width:0.5;" rx="2.5" ry="2.5"/><text x="1528.459" y="303.412" fill="#000" font-size="14" textLength="35.089" font-style="italic">«alt»</text><text x="1465.37" y="319.709" fill="#000" font-size="14" textLength="161.267">python-sonarcloud.yml</text></g><!--entity stack--><g class="entity" data-qualified-name="stack" id="ent0003" data-source-line="18"><rect x="370.58" y="272.267" width="208.85" height="68.891" fill="#E8F5E9" style="stroke:#666;stroke-width:0.5;" rx="2.5" ry="2.5"/><text x="442.428" y="295.262" fill="#000" font-size="14" textLength="65.153" font-style="italic">«bundle»</text><text x="380.58" y="311.559" fill="#000" font-size="14" textLength="188.85">python-standard-stack.yml</text><text x="380.58" y="327.856" fill="#000" font-size="14" textLength="111.556">(bundling layer)</text></g><g class="entity" data-qualified-name="GMN21" id="ent0022" data-source-line="44"><path d="M614,241.187 L614,302.717 L579.73,306.717 L614,310.717 L614,372.249 A0,0 0 0 0 614,372.249 L997.991,372.249 A0,0 0 0 0 997.991,372.249 L997.991,251.187 L987.991,241.187 L614,241.187 A0,0 0 0 0 614,241.187" style="stroke:#181818;stroke-width:0.5;" fill="#FEFFDD"/><path d="M987.991,241.187 L987.991,251.187 L997.991,251.187 L987.991,241.187" style="stroke:#181818;stroke-width:0.5;" fill="#FEFFDD"/><text x="620" y="258.254" fill="#000" font-size="13" textLength="55.682" font-weight="700">Source:</text><text x="620" y="273.387" fill="#000" font-size="13" textLength="303.773">- .github/workflows/python-standard-stack.yml</text><text x="620" y="288.519" fill="#000" font-size="13"> </text><text x="620" y="303.652" fill="#000" font-size="13" textLength="321.61">Nesting depth: caller (1) -> standard-stack (2) -></text><text x="620" y="318.785" fill="#000" font-size="13" textLength="339.93">python-ci / python-security-analysis / python-sbom /</text><text x="620" y="333.918" fill="#000" font-size="13" textLength="362.991">python-snyk (3). python-snyk's own jobs are not nested</text><text x="620" y="349.051" fill="#000" font-size="13" textLength="329.805">reusable calls, so this stays within GitHub's 4-level</text><text x="620" y="364.183" fill="#000" font-size="13" textLength="155.41">reusable workflow limit.</text></g><g class="entity" data-qualified-name="GMN24" id="ent0025" data-source-line="55"><path d="M919.23,464.247 L919.23,640.708 A0,0 0 0 0 919.23,640.708 L1308.769,640.708 A0,0 0 0 0 1308.769,640.708 L1308.769,474.247 L1298.769,464.247 L1118,464.247 L1114,333.337 L1110,464.247 L919.23,464.247 A0,0 0 0 0 919.23,464.247" style="stroke:#181818;stroke-width:0.5;" fill="#FEFFDD"/><path d="M1298.769,464.247 L1298.769,474.247 L1308.769,474.247 L1298.769,464.247" style="stroke:#181818;stroke-width:0.5;" fill="#FEFFDD"/><text x="925.23" y="481.314" fill="#000" font-size="13" textLength="126.249" font-weight="700">Source (catalog):</text><text x="925.23" y="496.447" fill="#000" font-size="13" textLength="277.697">- README.md, "Available Workflows" table</text><text x="925.23" y="511.579" fill="#000" font-size="13" textLength="260.33">- .github/workflows/python-snyk-iac.yml</text><text x="925.23" y="526.712" fill="#000" font-size="13" textLength="286.159">- .github/workflows/python-publish-pypi.yml</text><text x="925.23" y="541.845" fill="#000" font-size="13" textLength="278.161">- .github/workflows/python-sonarcloud.yml</text><text x="925.23" y="556.978" fill="#000" font-size="13"> </text><text x="925.23" y="572.111" fill="#000" font-size="13" textLength="357.227">Called directly by consumer repos that need advanced</text><text x="925.23" y="587.243" fill="#000" font-size="13" textLength="336.838">or matrix configuration the standard stack does not</text><text x="925.23" y="602.376" fill="#000" font-size="13" textLength="368.539">expose (per python-standard-stack.yml's own comment:</text><text x="925.23" y="617.509" fill="#000" font-size="13" textLength="320.455">"For advanced configuration ... call the individual</text><text x="925.23" y="632.642" fill="#000" font-size="13" textLength="133.079">workflows directly").</text></g><!--link caller to stack--><g class="link" data-entity-1="ent0002" data-entity-2="ent0003" id="lnk13" data-source-line="33" data-link-type="dependency"><path d="M1102.54,118.947 C974.39,128.047 764.38,152.997 597,221.417 C567.09,233.647 541.133,251.062 518.413,268.782" style="stroke:#333;stroke-width:1;" fill="none" id="caller-to-stack"/><polygon points="514.47,271.857,524.027,269.476,518.413,268.782,519.107,263.168,514.47,271.857" fill="#333" style="stroke:#333;stroke-width:1;stroke-linejoin:miter;stroke-miterlimit:10;"/><text x="711" y="199.754" fill="#000" font-size="13" textLength="131.13">uses (workflow_call)</text></g><!--link stack to ci--><g class="link" data-entity-1="ent0003" data-entity-2="ent0005" id="lnk14" data-source-line="34" data-link-type="dependency"><path d="M382.53,341.587 C315.7,368.697 225.34,410.967 156,464.247 C136.25,479.417 120.885,496.422 107.115,513.982" style="stroke:#333;stroke-width:1;" fill="none" id="stack-to-ci"/><polygon points="104.03,517.917,112.731,513.303,107.115,513.982,106.436,508.366,104.03,517.917" fill="#333" style="stroke:#333;stroke-width:1;stroke-linejoin:miter;stroke-miterlimit:10;"/><text x="247" y="422.814" fill="#000" font-size="13" textLength="44.643">always</text></g><!--link stack to security--><g class="link" data-entity-1="ent0003" data-entity-2="ent0006" id="lnk15" data-source-line="35" data-link-type="dependency"><path d="M448.44,341.607 C411.95,388.177 349.784,467.511 313.414,513.931" style="stroke:#333;stroke-width:1;" fill="none" id="stack-to-security"/><polygon points="310.33,517.867,319.029,513.249,313.414,513.931,312.732,508.315,310.33,517.867" fill="#333" style="stroke:#333;stroke-width:1;stroke-linejoin:miter;stroke-miterlimit:10;"/><text x="398" y="422.814" fill="#000" font-size="13" textLength="58.532">needs: ci</text></g><!--link stack to sbom--><g class="link" data-entity-1="ent0003" data-entity-2="ent0007" id="lnk16" data-source-line="36" data-link-type="dependency"><path d="M480.7,341.607 C488.53,388.177 501.71,466.516 509.52,512.936" style="stroke:#333;stroke-width:1;" fill="none" id="stack-to-sbom"/><polygon points="510.35,517.867,512.801,508.328,509.52,512.936,504.912,509.655,510.35,517.867" fill="#333" style="stroke:#333;stroke-width:1;stroke-linejoin:miter;stroke-miterlimit:10;"/><text x="497" y="422.814" fill="#000" font-size="13" textLength="58.532">needs: ci</text></g><!--link stack to snyk--><g class="link" data-entity-1="ent0003" data-entity-2="ent0008" id="lnk17" data-source-line="37" data-link-type="dependency"><path d="M513.79,341.607 C564.1,385.567 648.065,458.917 702.435,506.417" style="stroke:#333;stroke-width:1;stroke-dasharray:7,7;" fill="none" id="stack-to-snyk"/><polygon points="706.2,509.707,702.054,500.773,702.435,506.417,696.791,506.798,706.2,509.707" fill="#333" style="stroke:#333;stroke-width:1;stroke-linejoin:miter;stroke-miterlimit:10;"/><text x="644.631" y="415.314" fill="#000" font-size="13" textLength="58.532">needs: ci</text><text x="615" y="430.447" fill="#000" font-size="13" textLength="117.793">if: inputs.run-snyk</text></g><!--link caller to snykiac--><g class="link" data-entity-1="ent0002" data-entity-2="ent0010" id="lnk18" data-source-line="39" data-link-type="dependency"><path d="M1176.06,147.637 C1166.38,156.987 1156.93,167.747 1150,179.187 C1130.72,211.027 1122.169,248.678 1117.949,275.418" style="stroke:#333;stroke-width:1;stroke-dasharray:7,7;" fill="none" id="caller-to-snykiac"/><polygon points="1117.17,280.357,1122.524,272.09,1117.949,275.418,1114.622,270.843,1117.17,280.357" fill="#333" style="stroke:#333;stroke-width:1;stroke-linejoin:miter;stroke-miterlimit:10;"/><text x="1168.45" y="192.254" fill="#000" font-size="13" textLength="82.672">uses directly</text><text x="1151" y="207.387" fill="#000" font-size="13" textLength="117.571">(advanced config)</text></g><!--link caller to pypi--><g class="link" data-entity-1="ent0002" data-entity-2="ent0011" id="lnk19" data-source-line="40" data-link-type="dependency"><path d="M1250.2,147.617 C1258.26,157.367 1266.49,168.317 1273,179.187 C1292.66,211.987 1306.578,248.834 1315.368,275.184" style="stroke:#333;stroke-width:1;stroke-dasharray:7,7;" fill="none" id="caller-to-pypi"/><polygon points="1316.95,279.927,1317.896,270.124,1315.368,275.184,1310.308,272.655,1316.95,279.927" fill="#333" style="stroke:#333;stroke-width:1;stroke-linejoin:miter;stroke-miterlimit:10;"/><text x="1294.868" y="192.254" fill="#000" font-size="13" textLength="82.672">uses directly</text><text x="1289" y="207.387" fill="#000" font-size="13" textLength="94.409">(OIDC publish)</text></g><!--link caller to sonar--><g class="link" data-entity-1="ent0002" data-entity-2="ent0012" id="lnk20" data-source-line="41" data-link-type="dependency"><path d="M1324.9,147.527 C1347.68,156.507 1371.16,167.117 1392,179.187 C1441.41,207.787 1487.49,248.628 1516.58,276.498" style="stroke:#333;stroke-width:1;stroke-dasharray:7,7;" fill="none" id="caller-to-sonar"/><polygon points="1520.19,279.957,1516.458,270.842,1516.58,276.498,1510.924,276.619,1520.19,279.957" fill="#333" style="stroke:#333;stroke-width:1;stroke-linejoin:miter;stroke-miterlimit:10;"/><text x="1472.068" y="192.254" fill="#000" font-size="13" textLength="82.672">uses directly</text><text x="1438" y="207.387" fill="#000" font-size="13" textLength="150.808">(needs SONAR_TOKEN)</text></g><?plantuml-src XLRVRzCm47xFNt4g3pJJcW43116QDBeM46936n8F324dTbDJnuvifrs4-DyvEqddTYbBNnpVx--xkzHoAnXSizgG30_VbLujXDhWZI2MAscMl38ft5WYAT7K7V8LJ5LPASETGXIP5PSLqQI436M5LhMaKoMKXYTp_mGQvrghJISyzKyWp9rNoQIziGtcebcEKGl1XbJWJmJmVZVUktSv4OBfipDuCZkTlvXV3EbaU1JCwxoPlvgz7VJZwsFKQM41fxDdGrf4ME_ccViv1QKfqrrrh_qJ_OsY2kr8mM0qHJZhaca4rwEdT0FZWaccUGvV6xjK4YgjVcFTySWN-6Fg2zhISYl7B2aII0fkbtLsikdkpKdEawOKyKy8G206shFBuaVb0qnCnwGxv2jdX4uz9bmM84Z3jFUoXGczUDMTGbfu86l0Bjb-TupNMD62etoXLGc_LMRIlg0kYpPTZ8p257BU9dwFkakT1_g6vRNcjfaGIKHZk0dDU-4nICQeEU2lrmgzPghSSOJlZpX1ZT21R5Ox3l0zS71yAtCbgPyJ8bBW2y16hgr9TDqQ3uN0wvsskKA8zSCHDHZKqqk1SZShed5yv5sJcMDG68bJvYbgwTnZmOMQS9Ax4bmYRKDtEU1ze5hLcU1cEQcQYZzGTvUXMwnMvqBLzA5Z9tBLjOq9aybPsrsGGcsOWN7Vqh-SHXorGgUMSzGXOaCQ4zpshA9i2tieHhu6H4bovciCHRUIBz9zVhQ9zXQ8IfzgZphoGEYQo1oPGFGNl8X3AmVEWCdLfuifTAZkw7k81Wnyed1pTNb-_UlRrUVPPHn5KbdSaxnOMb2BRam1ZevkLArpbXuTuTjaO5iSt0KH6bmoOzqkeAoooxHR8J1-7aDBLc02unVk5essSmqdS6Xc0v6ZvUJUp7CnFesJyEAf0RMHVdq0qGomM6JBM4RHKFVZuDB3NZSAsvpxLTKOs631NC87RZ_M6VfvEH5ipKHeruC1WfVS9X6Jr4LW7QYPiXPpTAXkPw775N3kB16gY7k4hsVd5rzcIKcFONI-9bpiJke8hBjuX8nW6F-lkJ-BZ_ZTcKP7yFJmra1yS1KXbCJwoO2-iz4ClsebiPhVTLrUQ_yFmQ-NlYswOQOAUnTnH2jsvtORZ2jqVh3jEgfn4PRuRK_HR3J7S7jZrGTCaiJJxYDptAzhJclYODWMlork5DzJ-my0?></g></svg>
