<svg xmlns="http://www.w3.org/2000/svg" xmlns:xlink="http://www.w3.org/1999/xlink" version="1.1" data-diagram-type="ACTIVITY" style="width:983px;height:1640px;background:#FFFFFF;" width="983px" height="1640px" viewBox="0 0 983 1640" zoomAndPan="magnify" preserveAspectRatio="none" contentStyleType="text/css"><?plantuml 1.2026.7beta8?><defs/><g font-family="sans-serif" lengthAdjust="spacing"><g class="title" data-source-line="1"><text x="356.028" y="32.995" fill="#000" font-size="14" textLength="269.712" font-weight="700">Tiered PR Review: Flow and Gates</text></g><ellipse cx="480.335" cy="62.297" rx="10" ry="10" fill="#222" style="stroke:#222;stroke-width:1;"/><rect x="388.377" y="92.297" width="183.916" height="33.969" fill="#F5F5F5" style="stroke:#666;stroke-width:0.5;" rx="12.5" ry="12.5"/><text x="398.377" y="113.436" fill="#000" font-size="12" textLength="163.916">PR opened or synchronized</text><rect x="325.291" y="136.266" width="310.088" height="110.203" fill="none" style="stroke:#000;stroke-width:1.5;"/><path d="M560.071,136.266 L560.071,145.563 L550.071,155.563 L325.291,155.563" style="stroke:#000;stroke-width:1.5;" fill="none"/><text x="328.291" y="150.261" fill="#000" font-size="14" textLength="224.779">Static CI (always runs, blocking)</text><rect x="335.291" y="172.563" width="290.088" height="61.906" fill="#F5F5F5" style="stroke:#666;stroke-width:0.5;" rx="12.5" ry="12.5"/><text x="345.291" y="193.701" fill="#000" font-size="12" textLength="270.088">pre-commit, actionlint + shellcheck self-test,</text><text x="345.291" y="207.67" fill="#000" font-size="12" textLength="268.482">Bats and pytest suites, conventional-commit</text><text x="345.291" y="221.639" fill="#000" font-size="12" textLength="243.504">title validation, CodeQL, secret scanning</text><rect x="303.169" y="257.271" width="354.332" height="136.234" fill="none" style="stroke:#000;stroke-width:1.5;"/><path d="M647.501,257.271 L647.501,266.567 L637.501,276.567 L303.169,276.567" style="stroke:#000;stroke-width:1.5;" fill="none"/><text x="306.169" y="271.266" fill="#000" font-size="14" textLength="334.332">Async AI Reviewers (always runs, non-blocking)</text><rect x="364.327" y="293.567" width="232.016" height="33.969" fill="#F5F5F5" style="stroke:#666;stroke-width:0.5;" rx="12.5" ry="12.5"/><text x="374.327" y="314.706" fill="#000" font-size="12" textLength="212.016">Copilot code review (auto-enrolled)</text><rect x="369.211" y="347.536" width="222.248" height="33.969" fill="#F5F5F5" style="stroke:#666;stroke-width:0.5;" rx="12.5" ry="12.5"/><text x="379.211" y="368.675" fill="#000" font-size="12" textLength="202.248">CodeRabbit comments on the diff</text><polygon points="366.841,418.208,593.829,418.208,605.829,430.208,593.829,442.208,366.841,442.208,354.841,430.208,366.841,418.208" fill="#FFF3E0" style="stroke:#666;stroke-width:0.5;stroke-linejoin:miter;stroke-miterlimit:10;"/><text x="366.841" y="434.017" fill="#000" font-size="11" textLength="226.988">Non-draft, same-repo PR targeting main?</text><text x="335.833" y="427.614" fill="#000" font-size="11" textLength="19.008">yes</text><text x="605.829" y="414.81" fill="#000" font-size="11" textLength="97.093">no: draft, fork PR,</text><text x="605.829" y="427.614" fill="#000" font-size="11" textLength="104.011">or non-main target</text><rect x="16" y="452.208" width="564.128" height="497.617" fill="none" style="stroke:#000;stroke-width:1.5;"/><path d="M342.401,452.208 L342.401,461.505 L332.401,471.505 L16,471.505" style="stroke:#000;stroke-width:1.5;" fill="none"/><text x="19" y="466.204" fill="#000" font-size="14" textLength="316.401">Tier 0: claude-baseline-review.yml (advisory)</text><rect x="174.151" y="488.505" width="267.77" height="61.906" fill="#F5F5F5" style="stroke:#666;stroke-width:0.5;" rx="12.5" ry="12.5"/><text x="184.151" y="509.644" fill="#000" font-size="12" textLength="211.084">Classify PR into one of five classes:</text><text x="184.151" y="523.613" fill="#000" font-size="12" textLength="247.77">renovate-deps, pattern-series, docs-only,</text><text x="184.151" y="537.582" fill="#000" font-size="12" textLength="154.799">config-tweak, substantive</text><rect x="198.532" y="570.412" width="219.008" height="33.969" fill="#F5F5F5" style="stroke:#666;stroke-width:0.5;" rx="12.5" ry="12.5"/><text x="208.532" y="591.55" fill="#000" font-size="12" textLength="199.008">Run the class-specific spot check</text><polygon points="158.209,624.38,457.862,624.38,469.862,669.197,457.862,714.013,158.209,714.013,146.209,669.197,158.209,624.38" fill="#FFF3E0" style="stroke:#666;stroke-width:0.5;stroke-linejoin:miter;stroke-miterlimit:10;"/><text x="158.209" y="634.591" fill="#000" font-size="11" textLength="207.367">Deterministic escalation trigger fires?</text><text x="158.209" y="647.396" fill="#000" font-size="11" textLength="299.653">(workflow permissions/secrets/OIDC/triggers changed;</text><text x="158.209" y="660.2" fill="#000" font-size="11" textLength="273.877">scripts/ writes via gh api, secrets, transfer/delete;</text><text x="158.209" y="673.005" fill="#000" font-size="11" textLength="197.952">breaking-change label or "!" in title;</text><text x="158.209" y="685.81" fill="#000" font-size="11" textLength="252.039">>500 changed lines excl. lockfiles/generated;</text><text x="158.209" y="698.614" fill="#000" font-size="11" textLength="243.993">renovate tag/SHA mismatch or major bump;</text><text x="158.209" y="711.419" fill="#000" font-size="11" textLength="123.208">or reviewer judgment)</text><text x="127.201" y="666.603" fill="#000" font-size="11" textLength="19.008">yes</text><text x="469.862" y="666.603" fill="#000" font-size="11" textLength="13.702">no</text><rect x="65.181" y="724.013" width="142.057" height="33.969" fill="#F5F5F5" style="stroke:#666;stroke-width:0.5;" rx="12.5" ry="12.5"/><text x="75.181" y="745.152" fill="#000" font-size="12" textLength="122.057">Verdict = ESCALATE</text><rect x="28" y="777.982" width="216.418" height="33.969" fill="#F5F5F5" style="stroke:#666;stroke-width:0.5;" rx="12.5" ry="12.5"/><text x="38" y="799.121" fill="#000" font-size="12" textLength="196.418">Apply "needs-deep-review" label</text><rect x="399.597" y="724.013" width="160.531" height="33.969" fill="#F5F5F5" style="stroke:#666;stroke-width:0.5;" rx="12.5" ry="12.5"/><text x="409.597" y="745.152" fill="#000" font-size="12" textLength="140.531">Verdict = BASELINE-OK</text><polygon points="308.036,817.951,320.036,829.951,308.036,841.951,296.036,829.951,308.036,817.951" fill="#FFF3E0" style="stroke:#666;stroke-width:0.5;stroke-linejoin:miter;stroke-miterlimit:10;"/><rect x="198.423" y="861.951" width="219.225" height="75.875" fill="#F5F5F5" style="stroke:#666;stroke-width:0.5;" rx="12.5" ry="12.5"/><text x="208.423" y="883.089" fill="#000" font-size="12" textLength="154.934">Post ONE sticky comment</text><text x="208.423" y="897.058" fill="#000" font-size="12" textLength="199.225">(marker: claude-baseline-review)</text><text x="208.423" y="911.027" fill="#000" font-size="12" textLength="156.369">with verdict, findings, and</text><text x="208.423" y="924.996" fill="#000" font-size="12" textLength="172.43">Copilot/CodeRabbit/CI status</text><path d="M725.142,452.208 L725.142,491.041 L705.142,495.041 L725.142,499.041 L725.142,537.873 A0,0 0 0 0 725.142,537.873 L962.768,537.873 A0,0 0 0 0 962.768,537.873 L962.768,462.208 L952.768,452.208 L725.142,452.208 A0,0 0 0 0 725.142,452.208" style="stroke:#181818;stroke-width:0.5;" fill="#FEFFDD"/><path d="M952.768,452.208 L952.768,462.208 L962.768,462.208 L952.768,452.208" style="stroke:#181818;stroke-width:0.5;" fill="#FEFFDD"/><text x="731.142" y="469.275" fill="#000" font-size="13" textLength="216.626">Fork PRs cannot read the API-key</text><text x="731.142" y="484.408" fill="#000" font-size="13" textLength="211.117">secret, so the job would only fail</text><text x="731.142" y="499.541" fill="#000" font-size="13" textLength="203.265">at startup there. Advisory only:</text><text x="731.142" y="514.674" fill="#000" font-size="13" textLength="185.726">a skipped or failed Tier 0 job</text><text x="731.142" y="529.807" fill="#000" font-size="13" textLength="174.535">never blocks other checks.</text><rect x="600.128" y="478.056" width="105.014" height="33.969" fill="#F5F5F5" style="stroke:#666;stroke-width:0.5;" rx="12.5" ry="12.5"/><text x="610.128" y="499.195" fill="#000" font-size="12" textLength="85.014">Tier 0 skipped</text><polygon points="480.335,955.826,492.335,967.826,480.335,979.826,468.335,967.826,480.335,955.826" fill="#FFF3E0" style="stroke:#666;stroke-width:0.5;stroke-linejoin:miter;stroke-miterlimit:10;"/><polygon points="382.635,999.826,578.035,999.826,590.035,1011.826,578.035,1023.826,382.635,1023.826,370.635,1011.826,382.635,999.826" fill="#FFF3E0" style="stroke:#666;stroke-width:0.5;stroke-linejoin:miter;stroke-miterlimit:10;"/><text x="382.635" y="1015.634" fill="#000" font-size="11" textLength="195.4">"needs-deep-review" label applied?</text><text x="351.627" y="1009.231" fill="#000" font-size="11" textLength="19.008">yes</text><text x="590.035" y="1009.231" fill="#000" font-size="11" textLength="13.702">no</text><rect x="88.287" y="1033.826" width="432.077" height="300.047" fill="none" style="stroke:#000;stroke-width:1.5;"/><path d="M510.364,1033.826 L510.364,1043.123 L500.364,1053.123 L88.287,1053.123" style="stroke:#000;stroke-width:1.5;" fill="none"/><text x="91.287" y="1047.821" fill="#000" font-size="14" textLength="412.077">Tier 1: /pr-review skill (manual, ByronWilliamsCPA/.claude)</text><rect x="214.896" y="1070.123" width="178.859" height="33.969" fill="#F5F5F5" style="stroke:#666;stroke-width:0.5;" rx="12.5" ry="12.5"/><text x="224.896" y="1091.261" fill="#000" font-size="12" textLength="158.859">Maintainer runs /pr-review</text><rect x="199.418" y="1124.091" width="209.814" height="47.938" fill="#F5F5F5" style="stroke:#666;stroke-width:0.5;" rx="12.5" ry="12.5"/><text x="209.418" y="1145.23" fill="#000" font-size="12" textLength="189.814">Aggregate Copilot, CodeRabbit,</text><text x="209.418" y="1159.199" fill="#000" font-size="12" textLength="164.244">SonarQube, and CI findings</text><rect x="180.592" y="1192.029" width="247.467" height="75.875" fill="#F5F5F5" style="stroke:#666;stroke-width:0.5;" rx="12.5" ry="12.5"/><text x="190.592" y="1213.167" fill="#000" font-size="12" textLength="227.467">13 specialized agents + premise gate</text><text x="190.592" y="1227.136" fill="#000" font-size="12" textLength="217.951">-> confidence-scored, deduplicated,</text><text x="190.592" y="1241.105" fill="#000" font-size="12" textLength="216.973">consensus-validated findings across</text><text x="190.592" y="1255.074" fill="#000" font-size="12" textLength="106.535">four severity tiers</text><rect x="186.812" y="1287.904" width="235.027" height="33.969" fill="#F5F5F5" style="stroke:#666;stroke-width:0.5;" rx="12.5" ry="12.5"/><text x="196.812" y="1309.042" fill="#000" font-size="12" textLength="215.027">Maintainer runs /pr-fix to remediate</text><rect x="540.364" y="1033.826" width="231.963" height="61.906" fill="#F5F5F5" style="stroke:#666;stroke-width:0.5;" rx="12.5" ry="12.5"/><text x="550.364" y="1054.964" fill="#000" font-size="12" textLength="177.668">PR remains gated only by the</text><text x="550.364" y="1068.933" fill="#000" font-size="12" textLength="211.963">static layer plus raw bot comments</text><text x="550.364" y="1082.902" fill="#000" font-size="12" textLength="89.414">(no deep pass)</text><polygon points="480.335,1339.873,492.335,1351.873,480.335,1363.873,468.335,1351.873,480.335,1339.873" fill="#FFF3E0" style="stroke:#666;stroke-width:0.5;stroke-linejoin:miter;stroke-miterlimit:10;"/><rect x="390.305" y="1383.873" width="180.061" height="33.969" fill="#F5F5F5" style="stroke:#666;stroke-width:0.5;" rx="12.5" ry="12.5"/><text x="400.305" y="1405.011" fill="#000" font-size="12" textLength="160.061">Maintainer merge decision</text><path d="M141.885,1427.841 L141.885,1619.435 A0,0 0 0 0 141.885,1619.435 L449.335,1619.435 A0,0 0 0 0 449.335,1619.435 L449.335,1527.638 L469.335,1523.638 L449.335,1519.638 L449.335,1437.841 L439.335,1427.841 L141.885,1427.841 A0,0 0 0 0 141.885,1427.841" style="stroke:#181818;stroke-width:0.5;" fill="#FEFFDD"/><path d="M439.335,1427.841 L439.335,1437.841 L449.335,1437.841 L439.335,1427.841" style="stroke:#181818;stroke-width:0.5;" fill="#FEFFDD"/><text x="147.885" y="1444.908" fill="#000" font-size="13" textLength="55.682" font-weight="700">Source:</text><a target="_top" href="../tiered-pr-review.md" xlink:href="../tiered-pr-review.md" xlink:type="simple" xlink:actuate="onRequest" xlink:show="new" title="../tiered-pr-review.md" xlink:title="../tiered-pr-review.md"><text x="147.885" y="1460.041" fill="#00F" font-size="13" textLength="142.251" text-decoration="underline">../tiered-pr-review.md</text></a><text x="147.885" y="1475.174" fill="#000" font-size="13"> </text><text x="147.885" y="1490.307" fill="#000" font-size="13" textLength="242.753">Tier 0 is advisory only: its verdict is a</text><text x="147.885" y="1505.439" fill="#000" font-size="13" textLength="286.451">sticky comment plus a label, never a merge</text><text x="147.885" y="1520.572" fill="#000" font-size="13" textLength="257.778">block. Escalation is deterministic where</text><text x="147.885" y="1535.705" fill="#000" font-size="13" textLength="225.323">possible (doc section 3); "reviewer</text><text x="147.885" y="1550.838" fill="#000" font-size="13" textLength="255.639">judgment" is the catch-all sixth trigger.</text><text x="147.885" y="1565.971" fill="#000" font-size="13" textLength="250.047">Docs-only changes, pattern-series PRs</text><text x="147.885" y="1581.104" fill="#000" font-size="13" textLength="237.917">matching their precedent, and clean</text><text x="147.885" y="1596.236" fill="#000" font-size="13" textLength="255.893">patch/minor pin bumps do not escalate</text><text x="147.885" y="1611.369" fill="#000" font-size="13" textLength="85.706">on their own.</text><ellipse cx="480.335" cy="1523.638" rx="11" ry="11" fill="none" style="stroke:#222;stroke-width:1;"/><ellipse cx="480.335" cy="1523.638" rx="6" ry="6" fill="#222" style="stroke:#222;stroke-width:1;"/><line x1="480.335" y1="72.297" x2="480.335" y2="92.297" style="stroke:#181818;stroke-width:1;"/><polygon points="476.335,82.297,480.335,92.297,484.335,82.297,480.335,86.297" fill="#181818" style="stroke:#181818;stroke-width:1;stroke-linejoin:miter;stroke-miterlimit:10;"/><line x1="480.335" y1="126.266" x2="480.335" y2="172.563" style="stroke:#181818;stroke-width:1;"/><polygon points="476.335,162.563,480.335,172.563,484.335,162.563,480.335,166.563" fill="#181818" style="stroke:#181818;stroke-width:1;stroke-linejoin:miter;stroke-miterlimit:10;"/><line x1="480.335" y1="327.536" x2="480.335" y2="347.536" style="stroke:#181818;stroke-width:1;"/><polygon points="476.335,337.536,480.335,347.536,484.335,337.536,480.335,341.536" fill="#181818" style="stroke:#181818;stroke-width:1;stroke-linejoin:miter;stroke-miterlimit:10;"/><line x1="480.335" y1="234.469" x2="480.335" y2="293.567" style="stroke:#181818;stroke-width:1;"/><polygon points="476.335,283.567,480.335,293.567,484.335,283.567,480.335,287.567" fill="#181818" style="stroke:#181818;stroke-width:1;stroke-linejoin:miter;stroke-miterlimit:10;"/><line x1="308.036" y1="550.412" x2="308.036" y2="570.412" style="stroke:#181818;stroke-width:1;"/><polygon points="304.036,560.412,308.036,570.412,312.036,560.412,308.036,564.412" fill="#181818" style="stroke:#181818;stroke-width:1;stroke-linejoin:miter;stroke-miterlimit:10;"/><line x1="136.209" y1="757.982" x2="136.209" y2="777.982" style="stroke:#181818;stroke-width:1;"/><polygon points="132.209,767.982,136.209,777.982,140.209,767.982,136.209,771.982" fill="#181818" style="stroke:#181818;stroke-width:1;stroke-linejoin:miter;stroke-miterlimit:10;"/><line x1="146.209" y1="669.197" x2="136.209" y2="669.197" style="stroke:#181818;stroke-width:1;"/><line x1="136.209" y1="669.197" x2="136.209" y2="724.013" style="stroke:#181818;stroke-width:1;"/><polygon points="132.209,714.013,136.209,724.013,140.209,714.013,136.209,718.013" fill="#181818" style="stroke:#181818;stroke-width:1;stroke-linejoin:miter;stroke-miterlimit:10;"/><line x1="469.862" y1="669.197" x2="479.862" y2="669.197" style="stroke:#181818;stroke-width:1;"/><line x1="479.862" y1="669.197" x2="479.862" y2="724.013" style="stroke:#181818;stroke-width:1;"/><polygon points="475.862,714.013,479.862,724.013,483.862,714.013,479.862,718.013" fill="#181818" style="stroke:#181818;stroke-width:1;stroke-linejoin:miter;stroke-miterlimit:10;"/><line x1="136.209" y1="811.951" x2="136.209" y2="829.951" style="stroke:#181818;stroke-width:1;"/><line x1="136.209" y1="829.951" x2="296.036" y2="829.951" style="stroke:#181818;stroke-width:1;"/><polygon points="286.036,825.951,296.036,829.951,286.036,833.951,290.036,829.951" fill="#181818" style="stroke:#181818;stroke-width:1;stroke-linejoin:miter;stroke-miterlimit:10;"/><line x1="479.862" y1="757.982" x2="479.862" y2="829.951" style="stroke:#181818;stroke-width:1;"/><line x1="479.862" y1="829.951" x2="320.036" y2="829.951" style="stroke:#181818;stroke-width:1;"/><polygon points="330.036,825.951,320.036,829.951,330.036,833.951,326.036,829.951" fill="#181818" style="stroke:#181818;stroke-width:1;stroke-linejoin:miter;stroke-miterlimit:10;"/><line x1="308.036" y1="604.38" x2="308.036" y2="624.38" style="stroke:#181818;stroke-width:1;"/><polygon points="304.036,614.38,308.036,624.38,312.036,614.38,308.036,618.38" fill="#181818" style="stroke:#181818;stroke-width:1;stroke-linejoin:miter;stroke-miterlimit:10;"/><line x1="308.036" y1="841.951" x2="308.036" y2="861.951" style="stroke:#181818;stroke-width:1;"/><polygon points="304.036,851.951,308.036,861.951,312.036,851.951,308.036,855.951" fill="#181818" style="stroke:#181818;stroke-width:1;stroke-linejoin:miter;stroke-miterlimit:10;"/><line x1="354.841" y1="430.208" x2="308.036" y2="430.208" style="stroke:#181818;stroke-width:1;"/><line x1="308.036" y1="430.208" x2="308.036" y2="488.505" style="stroke:#181818;stroke-width:1;"/><polygon points="304.036,478.505,308.036,488.505,312.036,478.505,308.036,482.505" fill="#181818" style="stroke:#181818;stroke-width:1;stroke-linejoin:miter;stroke-miterlimit:10;"/><line x1="605.829" y1="430.208" x2="652.635" y2="430.208" style="stroke:#181818;stroke-width:1;"/><line x1="652.635" y1="430.208" x2="652.635" y2="478.056" style="stroke:#181818;stroke-width:1;"/><polygon points="648.635,468.056,652.635,478.056,656.635,468.056,652.635,472.056" fill="#181818" style="stroke:#181818;stroke-width:1;stroke-linejoin:miter;stroke-miterlimit:10;"/><line x1="308.036" y1="937.826" x2="308.036" y2="967.826" style="stroke:#181818;stroke-width:1;"/><line x1="308.036" y1="967.826" x2="468.335" y2="967.826" style="stroke:#181818;stroke-width:1;"/><polygon points="458.335,963.826,468.335,967.826,458.335,971.826,462.335,967.826" fill="#181818" style="stroke:#181818;stroke-width:1;stroke-linejoin:miter;stroke-miterlimit:10;"/><line x1="652.635" y1="512.025" x2="652.635" y2="967.826" style="stroke:#181818;stroke-width:1;"/><line x1="652.635" y1="967.826" x2="492.335" y2="967.826" style="stroke:#181818;stroke-width:1;"/><polygon points="502.335,963.826,492.335,967.826,502.335,971.826,498.335,967.826" fill="#181818" style="stroke:#181818;stroke-width:1;stroke-linejoin:miter;stroke-miterlimit:10;"/><line x1="480.335" y1="381.505" x2="480.335" y2="418.208" style="stroke:#181818;stroke-width:1;"/><polygon points="476.335,408.208,480.335,418.208,484.335,408.208,480.335,412.208" fill="#181818" style="stroke:#181818;stroke-width:1;stroke-linejoin:miter;stroke-miterlimit:10;"/><line x1="304.325" y1="1104.091" x2="304.325" y2="1124.091" style="stroke:#181818;stroke-width:1;"/><polygon points="300.325,1114.091,304.325,1124.091,308.325,1114.091,304.325,1118.091" fill="#181818" style="stroke:#181818;stroke-width:1;stroke-linejoin:miter;stroke-miterlimit:10;"/><line x1="304.325" y1="1172.029" x2="304.325" y2="1192.029" style="stroke:#181818;stroke-width:1;"/><polygon points="300.325,1182.029,304.325,1192.029,308.325,1182.029,304.325,1186.029" fill="#181818" style="stroke:#181818;stroke-width:1;stroke-linejoin:miter;stroke-miterlimit:10;"/><line x1="304.325" y1="1267.904" x2="304.325" y2="1287.904" style="stroke:#181818;stroke-width:1;"/><polygon points="300.325,1277.904,304.325,1287.904,308.325,1277.904,304.325,1281.904" fill="#181818" style="stroke:#181818;stroke-width:1;stroke-linejoin:miter;stroke-miterlimit:10;"/><line x1="370.635" y1="1011.826" x2="304.325" y2="1011.826" style="stroke:#181818;stroke-width:1;"/><line x1="304.325" y1="1011.826" x2="304.325" y2="1070.123" style="stroke:#181818;stroke-width:1;"/><polygon points="300.325,1060.123,304.325,1070.123,308.325,1060.123,304.325,1064.123" fill="#181818" style="stroke:#181818;stroke-width:1;stroke-linejoin:miter;stroke-miterlimit:10;"/><line x1="590.035" y1="1011.826" x2="656.345" y2="1011.826" style="stroke:#181818;stroke-width:1;"/><line x1="656.345" y1="1011.826" x2="656.345" y2="1033.826" style="stroke:#181818;stroke-width:1;"/><polygon points="652.345,1023.826,656.345,1033.826,660.345,1023.826,656.345,1027.826" fill="#181818" style="stroke:#181818;stroke-width:1;stroke-linejoin:miter;stroke-miterlimit:10;"/><line x1="304.325" y1="1321.873" x2="304.325" y2="1351.873" style="stroke:#181818;stroke-width:1;"/><line x1="304.325" y1="1351.873" x2="468.335" y2="1351.873" style="stroke:#181818;stroke-width:1;"/><polygon points="458.335,1347.873,468.335,1351.873,458.335,1355.873,462.335,1351.873" fill="#181818" style="stroke:#181818;stroke-width:1;stroke-linejoin:miter;stroke-miterlimit:10;"/><line x1="656.345" y1="1095.732" x2="656.345" y2="1351.873" style="stroke:#181818;stroke-width:1;"/><line x1="656.345" y1="1351.873" x2="492.335" y2="1351.873" style="stroke:#181818;stroke-width:1;"/><polygon points="502.335,1347.873,492.335,1351.873,502.335,1355.873,498.335,1351.873" fill="#181818" style="stroke:#181818;stroke-width:1;stroke-linejoin:miter;stroke-miterlimit:10;"/><line x1="480.335" y1="979.826" x2="480.335" y2="999.826" style="stroke:#181818;stroke-width:1;"/><polygon points="476.335,989.826,480.335,999.826,484.335,989.826,480.335,993.826" fill="#181818" style="stroke:#181818;stroke-width:1;stroke-linejoin:miter;stroke-miterlimit:10;"/><line x1="480.335" y1="1363.873" x2="480.335" y2="1383.873" style="stroke:#181818;stroke-width:1;"/><polygon points="476.335,1373.873,480.335,1383.873,484.335,1373.873,480.335,1377.873" fill="#181818" style="stroke:#181818;stroke-width:1;stroke-linejoin:miter;stroke-miterlimit:10;"/><line x1="480.335" y1="1417.841" x2="480.335" y2="1512.638" style="stroke:#181818;stroke-width:1;"/><polygon points="476.335,1502.638,480.335,1512.638,484.335,1502.638,480.335,1506.638" fill="#181818" style="stroke:#181818;stroke-width:1;stroke-linejoin:miter;stroke-miterlimit:10;"/><?plantuml-src XLR1Sjis4BtpAxRgnNP4oPbCUf2coSYoqtgQ9ewTQGzn3X2vf12100S0fQYT_7lVWbHj9qvhZsrPV5ZixdlxLb57m_HUi-UIhgxfchUQTpDwPToEb2tf5nKvP5dOQDighnfQgM9JUzVPSkcCy_JZg_Hr3x4eejxgk3_x1lbSlXz3Eb-o7r0_fQz7KETQDSwMPuyayEpYz3yEF18z2r7vcCrGiclPedWy37jRhBsp-Yykvrc6O557xIoDRgAAkg3b9HqfirFxGBwpOKmhumfSMn-FwE-CQDPwpWlND3gEIHLorcWRwGc5DHjJhBdOK61JvMXg76TdAeRKvNOlRr3eDFwEgN1sorQEApF4os9YQgkCBfKy6TFIbVpkzHW12yyuN2XhaSiy-_8WzuMKHOlBWLlsuQiYhBFvruKiNQkDYyYaPFBf84vrqULilJE6o-DvZolvMgrMMg1DWwG3uTAuPYfrLQLST4L7Rt17wLM5lWJLSEwvTQ8ti51pnCNKA6rV7ij9IqTx3iS8VwyAaIYTpgWmgYivNocqKLi99BbDzer1VkLM1-VtGn6Idb4Xw6elLu48XzoON4MLthA42e73BFDitHOwpqjkqOzMnSZUve6z5ZPALuGSJEx76OYfT9t77QiDAkbMa15uslAyl--wwsjFeVFGSg4hw2QqqafXlyT9HyuPbpJQwY3AOh1d4gyKlQvh55jfp-7bhJtQER-fP1vREO1wd0tJdlGmVNjvlfmEHmBkKBQ6U6zjABnkyPnsNZH5MwseNfDgzK4mg2nwPKF5VbgoGJeujlAe37JaVIGoQiL6PcFqmmWTfAH2u5uyFpqzt4P2H23-N9W9YOugRJXCQuoLHrSbcqE7mNSzlVbrGQYZKR5OI-X6VSBlLTUqGEAL7tHAdxgo5aaTVoMBrEe_s9UwYFGpNTmi5wyNxo_cXqUBjZLx6bdcCe1JRWULZFfoUXoRm7HatIC1pnOt5wyltrpaRtyRi1PYxXc-SfZJjsykI6ZRx0-g1qsDyXlstrFeyQtTwRYcRN_B6FGYgAt10WpWrWu3DxqRg2dS1lAANP0alcI7X6Sq3585NK3OuzGq6M8PeM6YfAfPFpC4OsnRSJG22Xn0BEkOgddLHu1kO1sGACWlatuNLvVvXlS9rAi5gd7fqIUtefth31mJ8q6LqYR1LAJagLqhCCyJMWpZc82p7dH8HdYNetWrP8cu2M8PBUgD5LOYeVh92PCi4P5go7f6ahLybsU8lJMQo_zpbQSpchP-E2i96dX9esodp9ZEzbW8V-8jx9Aml5fC9ps_TnxpExeUyOD8ugVtOWsciAXhpxMeVo2vj-wUPR1t0vltxxeL9od8aZbeOmZmz1abAu7tOpEHgfFDFY5i6ymHayI-jVaBIlPKiYqu3uN3IeTvSTcX2uKC8ku28h0DNSY7JO9uXzkmiRmBuTPMhiCo51wmH37oS9Rvzskjz6U2io8NBZK2FbHh4YBS5uznBgHS1-cizi8BhAfVhaRj4ROr7VQIsj7AtQqKJ9Tr90o3l12mUWR-xoVKC8GFKA758UVOyAxDigHumvK8_kJa1fKLF3ivmNyVFamcqvW--UJ_KZPfoeyVCpmTLAdHbGSo9etM3qESdWBxq0hw4bIlmV6WPzMd1t1IzeGkxWmVKSe7os0dyoD21HjwXQr_X1KaSvZWpuxdD3fu9507bnn9eBHyn5Xp1HK7_HcMCsm7cP_pmoeRlFkRRITk05poPjdAYAUz2ArWw2hs2YqCAvi62QWfqiOmjx0UiN3KucH43njDwkW_422Eszb9TfZXVm00?></g></svg>
